<?xml version="1.0" encoding="UTF-8"?>
<svg width="540px" height="540px" viewBox="0 0 540 540" version="1.1" xmlns="http://www.w3.org/2000/svg" xmlns:xlink="http://www.w3.org/1999/xlink">
    <title>OpenSearch</title>
    <defs>
        <linearGradient x1="50%" y1="0%" x2="50%" y2="100%" id="linearGradient-1">
            <stop stop-color="#00ECCD" offset="0%"></stop>
            <stop stop-color="#00F542" offset="100%"></stop>
        </linearGradient>
        <linearGradient x1="3.8644837%" y1="69.2172238%" x2="100%" y2="31.4461533%" id="linearGradient-2">
            <stop stop-color="#00F81E" offset="0%"></stop>
            <stop stop-color="#00F26F" offset="21.9790194%"></stop>
            <stop stop-color="#00EBD7" offset="100%"></stop>
        </linearGradient>
        <linearGradient x1="3.8644837%" y1="66.8328237%" x2="100%" y2="33.7482441%" id="linearGradient-3">
            <stop stop-color="#00F81E" offset="0%"></stop>
            <stop stop-color="#00F26F" offset="21.9790194%"></stop>
            <stop stop-color="#00EBD7" offset="100%"></stop>
        </linearGradient>
    </defs>
    <g id="OpenSearch" stroke="none" stroke-width="1" fill="none" fill-rule="evenodd">
        <rect id="Rectangle" stroke="url(#linearGradient-1)" stroke-width="2" fill="#000000" x="1" y="1" width="538" height="538" rx="48"></rect>
        <g id="Group" transform="translate(22.374516, 72.000000)">
            <path d="M231.625484,145.565612 C243.909217,114.751517 253.87425,93.4841842 261.520583,81.7636138 C276.867153,58.239849 296.85735,40.8036273 311.818452,31.99685 C328.624999,22.1037605 356.054341,4.48250937 392.78932,1.14389217 C400.908513,0.405988471 412.75509,-1.01160193 427.753983,1.14389217 C434.508954,2.11465037 446.466121,4.78673946 463.625484,9.16015943 C456.054101,33.4853154 448.013384,52.0533496 439.503333,64.8642622 C430.993283,77.6751748 411.766541,96.7716126 381.823107,122.153576 C355.681238,138.335943 333.803269,147.690687 316.189199,150.217808 C305.151715,151.801375 286.979193,154.060328 267.637785,152.441445 C259.95485,151.79838 247.95075,149.506436 231.625484,145.565612 Z" id="Path-23" fill="url(#linearGradient-2)"></path>
            <path d="M219.625484,299.565612 C231.909217,268.751517 241.87425,247.484184 249.520583,235.763614 C264.867153,212.239849 284.85735,194.803627 299.818452,185.99685 C316.624999,176.10376 344.054341,158.482509 380.78932,155.143892 C388.908513,154.405988 400.75509,152.988398 415.753983,155.143892 C422.508954,156.11465 434.466121,158.786739 451.625484,163.160159 C444.054101,187.485315 436.013384,206.05335 427.503333,218.864262 C418.993283,231.675175 400.581658,250.132075 372.268458,274.234962 C344.496355,291.696405 321.803269,301.690687 304.189199,304.217808 C293.151715,305.801375 274.979193,308.060328 255.637785,306.441445 C247.95485,305.79838 235.95075,303.506436 219.625484,299.565612 Z" id="Path-23" fill="url(#linearGradient-2)"></path>
            <path d="M17.7710784,328.594879 C31.814554,298.471553 43.0595555,277.617017 51.506083,266.031272 C68.4586818,242.778106 90.0183366,225.171909 105.986169,216.070055 C123.923626,205.845491 153.257053,187.741613 191.740391,182.955046 C200.246008,181.897115 212.669899,180.026067 228.243418,181.451152 C235.257179,182.09296 247.634701,184.145033 265.375984,187.60737 C256.508951,211.295795 247.37974,229.475058 237.988351,242.145158 C228.596961,254.815259 209.443569,272.831165 180.528174,296.192877 C149.245978,315.163393 124.360359,326.241027 105.871315,329.42578 C94.2855469,331.421438 75.224092,334.372651 55.0957648,333.649726 C47.1002442,333.36256 34.658682,331.677611 17.7710784,328.594879 Z" id="Path-23" fill="url(#linearGradient-3)" transform="translate(141.573531, 257.348531) rotate(-45.000000) translate(-141.573531, -257.348531) "></path>
        </g>
    </g>
</svg>